<svg id="Livello_1" data-name="Livello 1" xmlns="http://www.w3.org/2000/svg" viewBox="0 0 126.69 78.5"><defs><style>.cls-1{fill:#fff;}.cls-2,.cls-3{fill:none;stroke:#fff;stroke-miterlimit:10;}.cls-3{stroke-width:2px;}</style></defs><title>logo</title><path class="cls-1" d="M100,70.5c22.61,0,41,11,41,24.5a14.31,14.31,0,0,1-.17,2.2,13.64,13.64,0,0,1-.51,2.21c-3.6,11.64-20.56,20.09-40.32,20.09s-36.72-8.45-40.32-20.1a13.17,13.17,0,0,1-.51-2.21A14.09,14.09,0,0,1,59,95c0-13.51,18.39-24.5,41-24.5m0-2C76.25,68.5,57,80.36,57,95a16,16,0,0,0,.19,2.5,16.48,16.48,0,0,0,.58,2.5C61.56,112.25,79,121.5,100,121.5s38.44-9.25,42.23-21.5a16.48,16.48,0,0,0,.58-2.5A16,16,0,0,0,143,95c0-14.64-19.25-26.5-43-26.5Z" transform="translate(-36.41 -55)"/><path class="cls-1" d="M143,100a16,16,0,0,1-.19,2.5c-2,13.47-20.43,24-42.81,24S59.23,116,57.19,102.5a16.54,16.54,0,0,1,0-5,16.48,16.48,0,0,0,.58,2.5C61.56,112.25,79,121.5,100,121.5s38.44-9.25,42.23-21.5a16.48,16.48,0,0,0,.58-2.5A16,16,0,0,1,143,100Z" transform="translate(-36.41 -55)"/><path class="cls-2" d="M143,100a16,16,0,0,1-.19,2.5c-2,13.47-20.43,24-42.81,24S59.23,116,57.19,102.5a16.54,16.54,0,0,1,0-5,16.48,16.48,0,0,0,.58,2.5C61.56,112.25,79,121.5,100,121.5s38.44-9.25,42.23-21.5a16.48,16.48,0,0,0,.58-2.5A16,16,0,0,1,143,100Z" transform="translate(-36.41 -55)"/><circle class="cls-1" cx="99.59" cy="11" r="6"/><path class="cls-3" d="M74.14,126.17A61.91,61.91,0,0,0,100,131.5c23.75,0,43-11.86,43-26.5a16,16,0,0,0-.19-2.5c-2,13.47-20.43,24-42.81,24A65.82,65.82,0,0,1,81.78,124" transform="translate(-36.41 -55)"/><path class="cls-3" d="M141.49,91.44c9.59-8.54,14.39-16.42,12-21.34-4.55-9.2-32.61-4.62-62.68,10.24S40,114.7,44.55,123.9c1,2,3.06,3.32,6,4.06a4,4,0,0,1,8,.54s0,.08,0,.12a76.68,76.68,0,0,0,15.65-2.45C63.73,121.34,57,113.66,57,105a16,16,0,0,1,.19-2.5c1.45,9.55,11.11,17.61,24.59,21.5" transform="translate(-36.41 -55)"/><path class="cls-3" d="M50.55,128a4.93,4.93,0,0,0,0,.54,4,4,0,0,0,8,.12" transform="translate(-36.41 -55)"/><path class="cls-3" d="M58.49,128.62s0-.08,0-.12a4,4,0,0,0-8-.54" transform="translate(-36.41 -55)"/><path class="cls-1" d="M128,55l.31,1.6a2.67,2.67,0,0,0,2.09,2.09L132,59l-1.6.31a2.67,2.67,0,0,0-2.09,2.09L128,63l-.31-1.6a2.67,2.67,0,0,0-2.09-2.09L124,59l1.6-.31a2.67,2.67,0,0,0,2.09-2.09Z" transform="translate(-36.41 -55)"/><path class="cls-1" d="M44.42,94.41l.42,3.06a5,5,0,0,0,3.76,4.19l3,.76-3.06.42a5,5,0,0,0-4.19,3.76l-.76,3-.42-3.06a5,5,0,0,0-3.76-4.19l-3-.76,3.06-.42a5,5,0,0,0,4.19-3.76Z" transform="translate(-36.41 -55)"/><path class="cls-2" d="M154.5,92l.41,1.68a6.06,6.06,0,0,0,4.41,4.41l1.68.41-1.68.41a6.06,6.06,0,0,0-4.41,4.41L154.5,105l-.41-1.68a6.06,6.06,0,0,0-4.41-4.41L148,98.5l1.68-.41a6.06,6.06,0,0,0,4.41-4.41Z" transform="translate(-36.41 -55)"/></svg>